# xmcd CD database file
#
# Track frame offsets:
#	150
#	20437
#	41431
#	79250
#	93679
#	119320
#	148151
#	168822
#	200219
#	214943
#	234589
#	268053
#	282932
#	306951
#
# Disc length: 4502 seconds
#
# Revision: 0
# Processed by: cddbd v1.5.2PL0 Copyright (c) Steve Scherf et al.
# Submitted via: CDex 1.51
#
DISCID=d111940e
DTITLE=Buddy Guy - Can't Quit The Blues - CD2
DYEAR=2006
DGENRE=Blues
TTITLE0=Damn Right, I've Got The Blues
TTITLE1=Mustang Sally
TTITLE2=Five Long Years
TTITLE3=Mary Ann
TTITLE4=She's Nineteen Years Old
TTITLE5=Miss Ida B
TTITLE6=Feels Like Rain
TTITLE7=7-11
TTITLE8=I Smell Trouble
TTITLE9=Someone Else Is Steppin' In
TTITLE10=My Time After Awhile
TTITLE11=Your Mind Is On Vacation
TTITLE12=Midnight Train
TTITLE13=Totally Out Of Control
EXTD=YEAR: 2006
EXTT0=
EXTT1=
EXTT2=
EXTT3=
EXTT4=
EXTT5=
EXTT6=
EXTT7=
EXTT8=
EXTT9=
EXTT10=
EXTT11=
EXTT12=
EXTT13=
PLAYORDER=
